<svg id="visual" viewBox="0 0 960 540" width="960" height="540" xmlns="http://www.w3.org/2000/svg" xmlns:xlink="http://www.w3.org/1999/xlink" version="1.1"><rect x="0" y="0" width="960" height="540" fill="#315CA4"></rect><defs><linearGradient id="grad1_0" x1="43.8%" y1="0%" x2="100%" y2="100%"><stop offset="14.444444444444446%" stop-color="#cf97ef" stop-opacity="1"></stop><stop offset="85.55555555555554%" stop-color="#cf97ef" stop-opacity="1"></stop></linearGradient></defs><defs><linearGradient id="grad1_1" x1="43.8%" y1="0%" x2="100%" y2="100%"><stop offset="14.444444444444446%" stop-color="#cf97ef" stop-opacity="1"></stop><stop offset="85.55555555555554%" stop-color="#8379cd" stop-opacity="1"></stop></linearGradient></defs><defs><linearGradient id="grad1_2" x1="43.8%" y1="0%" x2="100%" y2="100%"><stop offset="14.444444444444446%" stop-color="#315ca4" stop-opacity="1"></stop><stop offset="85.55555555555554%" stop-color="#8379cd" stop-opacity="1"></stop></linearGradient></defs><defs><linearGradient id="grad2_0" x1="0%" y1="0%" x2="56.3%" y2="100%"><stop offset="14.444444444444446%" stop-color="#cf97ef" stop-opacity="1"></stop><stop offset="85.55555555555554%" stop-color="#cf97ef" stop-opacity="1"></stop></linearGradient></defs><defs><linearGradient id="grad2_1" x1="0%" y1="0%" x2="56.3%" y2="100%"><stop offset="14.444444444444446%" stop-color="#8379cd" stop-opacity="1"></stop><stop offset="85.55555555555554%" stop-color="#cf97ef" stop-opacity="1"></stop></linearGradient></defs><defs><linearGradient id="grad2_2" x1="0%" y1="0%" x2="56.3%" y2="100%"><stop offset="14.444444444444446%" stop-color="#8379cd" stop-opacity="1"></stop><stop offset="85.55555555555554%" stop-color="#315ca4" stop-opacity="1"></stop></linearGradient></defs><g transform="translate(960, 0)"><path d="M0 405C-19.5 366.6 -39 328.1 -64.4 323.7C-89.7 319.2 -120.9 348.7 -145.8 352C-170.7 355.3 -189.2 332.6 -213.3 319.3C-237.5 306 -267.2 302.2 -286.4 286.4C-305.5 270.5 -314.1 242.5 -325.9 217.8C-337.8 193 -353 171.5 -354.8 147C-356.6 122.4 -345 94.8 -351.1 69.8C-357.3 44.8 -381.1 22.4 -405 0L0 0Z" fill="#5c6bb9"></path><path d="M0 270C-13 244.4 -26 218.8 -42.9 215.8C-59.8 212.8 -80.6 232.4 -97.2 234.7C-113.8 236.9 -126.1 221.7 -142.2 212.9C-158.3 204 -178.2 201.5 -190.9 190.9C-203.7 180.3 -209.4 161.7 -217.3 145.2C-225.2 128.7 -235.3 114.3 -236.5 98C-237.7 81.6 -230 63.2 -234.1 46.6C-238.2 29.9 -254.1 14.9 -270 0L0 0Z" fill="#a988df"></path><path d="M0 135C-6.5 122.2 -13 109.4 -21.5 107.9C-29.9 106.4 -40.3 116.2 -48.6 117.3C-56.9 118.4 -63.1 110.9 -71.1 106.4C-79.2 102 -89.1 100.7 -95.5 95.5C-101.8 90.2 -104.7 80.8 -108.6 72.6C-112.6 64.3 -117.7 57.2 -118.3 49C-118.9 40.8 -115 31.6 -117 23.3C-119.1 14.9 -127 7.5 -135 0L0 0Z" fill="#cf97ef"></path></g><g transform="translate(0, 540)"><path d="M0 -405C28.6 -407.4 57.1 -409.8 78.2 -393.3C99.3 -376.8 112.9 -341.5 137.8 -332.6C162.6 -323.7 198.7 -341.1 225 -336.7C251.3 -332.4 268 -306.1 280.7 -280.7C293.5 -255.3 302.4 -230.7 307.6 -205.6C312.9 -180.4 314.6 -154.6 318.7 -132C322.9 -109.4 329.5 -90 344.3 -68.5C359 -47 382 -23.5 405 0L0 0Z" fill="#5c6bb9"></path><path d="M0 -270C19 -271.6 38.1 -273.2 52.2 -262.2C66.2 -251.2 75.3 -227.7 91.8 -221.7C108.4 -215.8 132.4 -227.4 150 -224.5C167.6 -221.6 178.6 -204.1 187.1 -187.1C195.6 -170.2 201.6 -153.8 205.1 -137C208.6 -120.3 209.7 -103.1 212.5 -88C215.2 -72.9 219.6 -60 229.5 -45.7C239.4 -31.3 254.7 -15.7 270 0L0 0Z" fill="#a988df"></path><path d="M0 -135C9.5 -135.8 19 -136.6 26.1 -131.1C33.1 -125.6 37.6 -113.8 45.9 -110.9C54.2 -107.9 66.2 -113.7 75 -112.2C83.8 -110.8 89.3 -102 93.6 -93.6C97.8 -85.1 100.8 -76.9 102.5 -68.5C104.3 -60.1 104.9 -51.5 106.2 -44C107.6 -36.5 109.8 -30 114.8 -22.8C119.7 -15.7 127.3 -7.8 135 0L0 0Z" fill="#cf97ef"></path></g></svg>