<svg id="visual" viewBox="0 0 900 600" width="900" height="600" xmlns="http://www.w3.org/2000/svg" xmlns:xlink="http://www.w3.org/1999/xlink" version="1.1"><path d="M701 600L693.5 580C686 560 671 520 675.5 480C680 440 704 400 725 360C746 320 764 280 738.5 240C713 200 644 160 629 120C614 80 653 40 672.5 20L692 0L900 0L900 20C900 40 900 80 900 120C900 160 900 200 900 240C900 280 900 320 900 360C900 400 900 440 900 480C900 520 900 560 900 580L900 600Z" fill="#7cc9ff"></path><path d="M611 600L599 580C587 560 563 520 570.5 480C578 440 617 400 641 360C665 320 674 280 648.5 240C623 200 563 160 554 120C545 80 587 40 608 20L629 0L693 0L673.5 20C654 40 615 80 630 120C645 160 714 200 739.5 240C765 280 747 320 726 360C705 400 681 440 676.5 480C672 520 687 560 694.5 580L702 600Z" fill="#65ade9"></path><path d="M422 600L419 580C416 560 410 520 434 480C458 440 512 400 527 360C542 320 518 280 485 240C452 200 410 160 416 120C422 80 476 40 503 20L530 0L630 0L609 20C588 40 546 80 555 120C564 160 624 200 649.5 240C675 280 666 320 642 360C618 400 579 440 571.5 480C564 520 588 560 600 580L612 600Z" fill="#5191d3"></path><path d="M188 600L194 580C200 560 212 520 224 480C236 440 248 400 234.5 360C221 320 182 280 158 240C134 200 125 160 140 120C155 80 194 40 213.5 20L233 0L531 0L504 20C477 40 423 80 417 120C411 160 453 200 486 240C519 280 543 320 528 360C513 400 459 440 435 480C411 520 417 560 420 580L423 600Z" fill="#4076bc"></path><path d="M0 600L0 580C0 560 0 520 0 480C0 440 0 400 0 360C0 320 0 280 0 240C0 200 0 160 0 120C0 80 0 40 0 20L0 0L234 0L214.5 20C195 40 156 80 141 120C126 160 135 200 159 240C183 280 222 320 235.5 360C249 400 237 440 225 480C213 520 201 560 195 580L189 600Z" fill="#315ca4"></path></svg>